<svg xmlns="http://www.w3.org/2000/svg" version="1.1" xmlns:xlink="http://www.w3.org/1999/xlink" xmlns:svgjs="http://svgjs.dev/svgjs" width="100%" height="100%" viewBox="0 0 1000 600"><rect width="1000" height="600" x="0" y="0" fill="#358597"/><g><circle r="166.66666666666666" cx="355.72841898600257" cy="377.95066355774804" fill="#fa70e2" transform="matrix(0.6611595861037685,0,0,0.6611595861037683,0,50.1142937072803)"/><path d="M448.9458837158424 449.575517610892L448.9458837158424 449.575517610892L428.22474807022 448.96688612330365Q406.72899053130334 448.96688612330365 393.36676287197673 450.57146004512754L393.36676287197673 450.57146004512754Q392.37082043774126 449.3541970699508 392.37082043774126 447.1686567281562L392.37082043774126 447.1686567281562L392.5921409786825 445.59174787394994Q404.54345018950875 442.797576044567 407.72493296553887 439.6160932685368Q410.906415741569 436.40694542488905 411.5150472291574 426.0602101358867Q412.0960136491281 415.7134748468843 412.0960136491281 404.45379232649935Q412.0960136491281 393.1941098061145 410.906415741569 370.0937783453739L410.906415741569 370.0937783453739L409.3018418197451 337.42133348892526Q400.14470443830186 354.35235487092916 380.7238269707092 394.9923392012619Q361.3029495031165 435.6323235315947 355.52095037102697 452.9506558602458L355.52095037102697 452.9506558602458L349.9602717798786 452.9506558602458Q311.1185168446933 365.1140661741963 300.16315006810254 345.99750445039786L300.16315006810254 345.99750445039786L291.7806345799536 331.6393343568357Q291.0060126866593 356.3442397394002 291.0060126866593 391.8938516280848Q291.0060126866593 427.4434635167693 293.38520850177747 442.797576044567L293.38520850177747 442.797576044567Q297.7562891853667 443.37854246453765 308.93297650289867 443.37854246453765L308.93297650289867 443.37854246453765Q309.51394292286943 444.98311638636153 309.51394292286943 446.864340984362Q309.51394292286943 448.77323064998006 308.93297650289867 449.575517610892L308.93297650289867 449.575517610892L286.4136114621288 448.96688612330365Q272.6640728561551 448.96688612330365 263.31328000138825 450.57146004512754L263.31328000138825 450.57146004512754Q262.3173375671528 449.3541970699508 262.3173375671528 447.1686567281562L262.3173375671528 447.1686567281562L262.5109930404763 445.59174787394994Q272.27676190950797 443.37854246453765 275.56890495600874 439.20111725427205Q278.8333829348918 435.02369204400634 279.82932536912733 428.24575047768127L279.82932536912733 428.24575047768127Q284.61538206698134 394.19005224035 285.41766902789334 320.8776230535686L285.41766902789334 320.8776230535686Q280.05064591006857 314.12734655486116 273.6600152903906 311.33317472547816L273.6600152903906 311.33317472547816Q272.8577283294787 311.13951925215457 262.5109930404763 309.7286008036543L262.5109930404763 309.7286008036543L261.90236155288795 306.93442897427127Q261.90236155288795 304.9425441058002 262.5109930404763 303.75294619824115L262.5109930404763 303.75294619824115L294.381150936013 302.9506592373292Q297.3689782387196 302.9506592373292 304.6448910221624 313.5187150672728Q311.92080380560526 324.08677089721635 319.08605631857745 336.9233622718075Q326.2513088315497 349.7599536463987 335.7127619567871 370.2874338186975Q345.1742150820246 390.8149139909963 351.53718063408485 405.7540505045291Q357.9278112537628 420.6931870180619 358.73009821467474 422.07644039894456L358.73009821467474 422.07644039894456Q361.3029495031165 416.294441266855 383.21368305629795 369.9831180749033Q405.12441660947945 323.6717948829516 412.0960136491281 305.5511755933886L412.0960136491281 305.5511755933886Q432.2085178071621 305.5511755933886 444.15982701798833 303.75294619824115L444.15982701798833 303.75294619824115Q445.1557694522239 305.5511755933886 445.1557694522239 308.73265836941874L445.1557694522239 308.73265836941874Q435.1963451098687 310.91819871121334 431.8212068605149 315.3169444624202Q428.44606861116125 319.68802514600947 428.0310925968964 324.6677373171871Q427.6437816502493 329.64744948836466 427.6437816502493 343.39698809433844Q427.6437816502493 357.14652670031217 428.94403982827896 390.01262703008433Q430.2166329386911 422.8787273598565 433.0108047680741 442.797576044567L433.0108047680741 442.797576044567Q436.80091903169256 443.37854246453765 448.9458837158424 443.37854246453765L448.9458837158424 443.37854246453765Q449.5545152034307 444.789460913038 449.5545152034307 446.5876903081855Q449.5545152034307 448.3582546357153 448.9458837158424 449.575517610892Z " fill="#358597" transform="matrix(0.6611595861037685,0,0,0.6611595861037683,0,50.1142937072803)"/><path d="M715.5086749414511 407.9409138046374L715.5086749414511 407.9409138046374L703.3469532719337 407.58369367549267Q690.7305878016866 407.58369367549267 682.8879822391007 408.5254558341469L682.8879822391007 408.5254558341469Q682.3034402095911 407.8110155758575 682.3034402095911 406.52827056665603L682.3034402095911 406.52827056665603L682.433338438371 405.6027456865993Q689.4478427924853 403.96278054825314 691.3151298311961 402.09549350954217Q693.1824168699071 400.21196919223377 693.5396369990518 394.1392269967738Q693.880619849599 388.0664848013138 693.880619849599 381.45791241213675Q693.880619849599 374.8493400229597 693.1824168699071 361.29121239405845L693.1824168699071 361.29121239405845L692.2406547112529 342.11498637042683Q686.8661154954848 352.05220087208863 675.4675459200492 375.90476313179636Q664.0689763446137 399.75732539150414 660.675385117739 409.9218617935307L660.675385117739 409.9218617935307L657.4116921196442 409.9218617935307Q634.6145529687731 358.3685022465109 628.1845906441683 347.14854273564765L628.1845906441683 347.14854273564765L623.26469522913 338.7213951435522Q622.8100514284004 353.2212849311077 622.8100514284004 374.08618792887785Q622.8100514284004 394.95109092664813 624.2064573877842 403.96278054825314L624.2064573877842 403.96278054825314Q626.7719474061871 404.30376339880036 633.3318079595716 404.30376339880036L633.3318079595716 404.30376339880036Q633.6727908101188 405.2455255574546 633.6727908101188 406.3496605020837Q633.6727908101188 407.47003272531026 633.3318079595716 407.9409138046374L633.3318079595716 407.9409138046374L620.1146631812176 407.58369367549267Q612.0447357182668 407.58369367549267 606.5565355523163 408.5254558341469L606.5565355523163 408.5254558341469Q605.9719935228068 407.8110155758575 605.9719935228068 406.52827056665603L605.9719935228068 406.52827056665603L606.0856544729892 405.6027456865993Q611.817413817902 404.30376339880036 613.7496499710028 401.85193433057987Q615.6656488455062 399.40010526235943 616.2501908750157 395.42197200597525L616.2501908750157 395.42197200597525Q619.0592400723809 375.43388205246924 619.530121151708 332.4050937691299L619.530121151708 332.4050937691299Q616.3800891037956 328.44319779134315 612.6292777477763 326.803232652997L612.6292777477763 326.803232652997Q612.1583966684491 326.6895717028146 606.0856544729892 325.86147049434277L606.0856544729892 325.86147049434277L605.7284343438445 324.2215053559966Q605.7284343438445 323.05242129697757 606.0856544729892 322.3542183172857L606.0856544729892 322.3542183172857L624.7909994172937 321.8833372379586Q626.5446255058223 321.8833372379586 630.8150297769612 328.08597766219845Q635.0854340481002 334.2886180864383 639.2908892048492 341.8227153556721Q643.4963443615982 349.35681262490584 649.0494936419386 361.40487334424085Q654.6026429222791 373.4529340635759 658.337216999701 382.2210645062186Q662.0880283557203 390.9891949488614 662.5589094350474 391.8010588787357L662.5589094350474 391.8010588787357Q664.0689763446137 388.407467651861 676.928900993823 361.2262632796685Q689.7888256430324 334.045058907476 693.880619849599 323.4096414261223L693.880619849599 323.4096414261223Q705.6851213899718 323.4096414261223 712.699625744086 322.3542183172857L712.699625744086 322.3542183172857Q713.2841677735955 323.4096414261223 713.2841677735955 325.27692846483325L713.2841677735955 325.27692846483325Q707.4387474785003 326.5596734740347 705.4577994896069 329.1414007710351Q703.4768515007136 331.706890789438 703.2332923217514 334.6296009369855Q703.0059704213866 337.55231108453313 703.0059704213866 345.62223854748396Q703.0059704213866 353.69216601043473 703.7691225154683 372.98205298424875Q704.5160373309527 392.27193995806283 706.156002469299 403.96278054825314L706.156002469299 403.96278054825314Q708.3805096371545 404.30376339880036 715.5086749414511 404.30376339880036L715.5086749414511 404.30376339880036Q715.8658950705958 405.1318646072722 715.8658950705958 406.1872877161088Q715.8658950705958 407.22647354634796 715.5086749414511 407.9409138046374ZM755.1438719979158 401.51095148003265L755.1438719979158 401.51095148003265Q764.7238663704329 401.51095148003265 772.0955908536919 396.3637341646294L772.0955908536919 396.3637341646294Q773.7355559920379 396.94827619413894 773.9628778924027 398.8155632328499L773.9628778924027 398.8155632328499L761.3465124221557 407.697354625675Q758.5374632247906 409.9218617935307 748.8275706234936 409.9218617935307Q739.1339153007941 409.9218617935307 732.3467328470447 401.2186804652779Q725.5595503932952 392.49926185842764 725.5595503932952 379.1684561298912Q725.5595503932952 365.8538876799522 732.9312748765542 358.1249430675486Q740.3029993598132 350.4122357337425 750.4675357618396 348.0740676157044L750.4675357618396 348.0740676157044Q759.3493271546649 348.0740676157044 766.1365096084144 354.033148860982L766.1365096084144 354.033148860982Q770.2283038149808 357.5404010380391 771.8682689533271 363.1584994327694L771.8682689533271 363.1584994327694Q772.2092518038742 364.5549053921533 775.1319619514218 364.68480362093317L775.1319619514218 364.68480362093317Q775.8301649311138 365.4966675508075 775.8301649311138 366.3734805950718Q775.8301649311138 367.250293639336 775.602843030749 368.19205579799024L775.602843030749 368.19205579799024Q755.0302110477335 372.98205298424875 735.15578204441 374.8493400229597L735.15578204441 374.8493400229597Q735.15578204441 389.82011088984234 743.4530314077256 397.28925904468616L743.4530314077256 397.28925904468616Q748.1293676438017 401.51095148003265 755.1438719979158 401.51095148003265ZM762.5155964811747 365.8538876799522L762.5155964811747 365.8538876799522Q763.1001385106842 365.4966675508075 763.1001385106842 364.9770746356879Q763.1001385106842 364.44124444197087 761.6387834369104 361.6971443589956Q760.1774283631366 358.9530442760204 756.5402779572996 355.85172406390046Q752.9193648300602 352.7504038517805 748.9412315736761 352.7504038517805Q744.9793355958893 352.7504038517805 743.0958112785809 353.91948791079955L743.0958112785809 353.91948791079955Q736.5521880037938 358.3685022465109 735.626663123737 370.0593428367012L735.626663123737 370.0593428367012Q741.9267272195618 370.0593428367012 749.9966546825126 368.7116487131098Q758.0665821454634 367.36395458951847 762.5155964811747 365.8538876799522ZM838.3761620886319 378.47025315019926L838.3761620886319 378.47025315019926Q838.3761620886319 394.0255660465914 838.9607041181416 396.83461524395653L838.9607041181416 396.83461524395653Q839.9024662767956 402.09549350954217 843.7669385829975 402.09549350954217L843.7669385829975 402.09549350954217Q845.1633445423813 402.09549350954217 847.9723937397466 401.9655952807623L847.9723937397466 401.9655952807623Q848.4432748190736 402.7936964892341 848.4432748190736 403.96278054825314L848.4432748190736 403.96278054825314L848.3133765902937 405.1318646072722Q840.3733473561228 406.52827056665603 836.6225360001035 408.9800996348765L836.6225360001035 408.9800996348765L835.2261300407197 409.9218617935307Q833.4725039521911 409.9218617935307 831.134335834153 406.64193151683844Q828.796167716115 403.3782385187436 828.796167716115 399.286444312177L828.796167716115 399.286444312177Q819.6708171443274 405.1318646072722 807.0544516740804 409.9218617935307L807.0544516740804 409.9218617935307Q798.5136431318024 408.1682357050022 791.8563589068331 399.3351561479695Q785.1828374032659 390.51831386953427 785.1828374032659 378.94113422952637L785.1828374032659 378.94113422952637Q785.1828374032659 371.45574879608506 788.1055475508135 365.56161666519745Q791.0282576983611 359.65124725571235 795.0063909547455 356.5499270435924Q798.9845242111296 353.44860683147243 803.6608604472058 351.3539978923967L803.6608604472058 351.3539978923967Q810.9026867016848 348.0740676157044 815.4653619875785 348.0740676157044L815.4653619875785 348.0740676157044Q815.9362430669055 348.0740676157044 829.0234896164798 349.94135465441536L829.0234896164798 349.94135465441536L829.0234896164798 328.67051969170797Q829.0234896164798 318.0351022103543 826.5716605482592 315.6969340923162L826.5716605482592 315.6969340923162Q825.2889155390578 314.41418908311476 823.1780693213846 314.17062990415246L823.1780693213846 314.17062990415246L818.9726141646356 313.69974882482535Q818.5017330853084 312.7742239447686 818.5017330853084 312.3033428654415L818.5017330853084 312.3033428654415L818.9726141646356 310.7770386772778Q824.0061705298563 309.85151379722106 828.6825067659324 308.3252096090573L828.6825067659324 308.3252096090573Q833.3588430020086 306.57158352052875 838.8470431679591 302.9506703932892L838.8470431679591 302.9506703932892Q840.2596864059403 302.9506703932892 840.71433020667 304.11975445230826L840.71433020667 304.11975445230826Q838.3761620886319 313.0015458451334 838.3761620886319 378.47025315019926ZM795.0063909547455 374.492119893815Q795.0063909547455 385.14377465376623 800.4458792849034 393.3760749026919Q805.8853676150613 401.62461243021505 812.6076009544208 401.62461243021505Q819.3298342937803 401.62461243021505 829.0234896164798 394.3665488971386L829.0234896164798 394.3665488971386L829.0234896164798 360.82033131473133Q829.0234896164798 357.5404010380391 821.0834603823089 355.26718203439094Q813.1271938695404 352.9939630307428 809.977161821628 352.9939630307428L809.977161821628 352.9939630307428Q805.0572664065896 352.9939630307428 800.0399473199661 359.71619637010224Q795.0063909547455 366.4384297094617 795.0063909547455 374.492119893815L795.0063909547455 374.492119893815ZM882.5740344309904 407.9409138046374L882.5740344309904 407.9409138046374L872.052277899819 407.58369367549267Q863.8686894866858 407.58369367549267 856.6268632322069 408.5254558341469L856.6268632322069 408.5254558341469Q855.9124229739175 407.58369367549267 855.9124229739175 406.52827056665603L855.9124229739175 406.52827056665603L856.1559821528797 405.6027456865993Q861.1733012395032 404.43366162758025 862.9269273280318 401.9655952807623L862.9269273280318 401.9655952807623Q864.2259096158307 400.09830824205136 864.9241125955225 397.4678691092585Q865.6223155752145 394.8374299764657 865.6223155752145 382.33472545640103L865.6223155752145 382.33472545640103L865.6223155752145 371.11476594553784Q865.6223155752145 363.85670241246135 864.9728244313151 361.04765321509615Q864.339570566013 358.2548412963285 863.0568255568116 357.31307913767426Q861.7578432690127 356.37131697902004 859.6632343299368 356.1439950786552L859.6632343299368 356.1439950786552L855.327880944408 355.7867749495105Q854.9868980938606 355.3321311487809 854.9868980938606 354.27670803994425L854.9868980938606 354.27670803994425L855.327880944408 352.7504038517805Q861.4168604184654 351.4676588425791 865.2163836102773 350.1199647189877Q869.0159068020891 348.7722705953963 874.1631241174923 346.2067805769934L874.1631241174923 346.2067805769934Q875.4458691266939 346.2067805769934 875.9167502060209 347.6031865363773L875.9167502060209 347.6031865363773Q874.5041069680397 355.5594530491457 874.5041069680397 385.48475750431345L874.5041069680397 385.48475750431345Q874.5041069680397 390.8592967200815 874.9100389329767 397.3542081590761Q875.3322081765114 403.84911959807073 876.0304111562034 403.96278054825314L876.0304111562034 403.96278054825314Q877.784037244732 404.30376339880036 882.5740344309904 404.30376339880036L882.5740344309904 404.30376339880036Q882.9312545601351 405.1318646072722 882.9312545601351 406.1872877161088Q882.9312545601351 407.22647354634796 882.5740344309904 407.9409138046374ZM871.581396820492 332.875974848457L871.581396820492 332.875974848457Q867.3759416637431 329.9532647009094 865.6223155752145 325.16326751465084L865.6223155752145 325.16326751465084Q867.0187215345984 323.5233023763047 869.4218387670262 321.7209644519837Q871.8249559994542 319.9023892490652 873.5785820879828 319.2041862693733L873.5785820879828 319.2041862693733Q878.0113591450968 322.4678792674681 879.2941041542981 327.0305545533618L879.2941041542981 327.0305545533618Q876.0304111562034 331.23600971011086 871.581396820492 332.875974848457ZM934.3709531569725 365.0257864714804L934.3709531569725 365.0257864714804L934.0137330278278 393.5546849672643Q934.0137330278278 402.09549350954217 939.5019331937783 402.09549350954217L939.5019331937783 402.09549350954217L943.7236256291249 401.9655952807623Q944.1782694298545 402.5501373102718 944.1782694298545 403.84911959807073L944.1782694298545 403.84911959807073L943.9509475294897 405.1318646072722Q934.955495186482 406.77182974561833 931.0910228802802 409.9218617935307L931.0910228802802 409.9218617935307Q928.5255328618773 409.2236588138388 926.706957658959 406.7068806312284Q924.8883824560403 404.19010244861795 924.6610605556757 401.38105325125275L924.6610605556757 401.38105325125275Q915.3083880835234 407.11281259616555 906.0693765615536 409.9218617935307L906.0693765615536 409.9218617935307Q902.0912433051692 409.9218617935307 897.8857881484203 405.42413562202694Q893.6803329916713 400.9264094505231 893.6803329916713 394.1392269967738L893.6803329916713 394.1392269967738Q893.6803329916713 390.7456357698991 895.2066371798348 388.00153568692383Q896.7167040894012 385.25743560394864 898.8275503070745 384.202012495112L898.8275503070745 384.202012495112Q907.4820197995348 379.8828963881806 924.5473996054932 376.6029661114883L924.5473996054932 376.6029661114883L924.5473996054932 365.4966675508075Q924.5473996054932 359.0667052262028 922.5015025022099 355.9166731782904Q920.4556053989265 352.7504038517805 917.5816070871715 352.7504038517805Q914.7238460540138 352.7504038517805 911.4439157773215 353.74087784622725Q908.1802227792268 354.74758911927137 906.8325286556353 357.5404010380391Q905.484834532044 360.3494502354042 905.484834532044 365.4966675508075L905.484834532044 365.4966675508075Q905.484834532044 365.9675486301346 903.9098185080877 366.4871415452542Q902.3348024841316 367.0229717389712 899.9316852517036 367.0229717389712Q897.5448052978729 367.0229717389712 896.6679922536089 365.90259951574467Q895.7911792093446 364.7984645711156 895.7911792093446 362.5739574032599L895.7911792093446 362.5739574032599Q895.7911792093446 358.3685022465109 901.8639214048044 353.44860683147243L901.8639214048044 353.44860683147243Q903.2603273641882 352.52308195141575 910.1124589323276 350.29857478356007Q916.9483532218694 348.0740676157044 918.0037763307062 348.0740676157044L918.0037763307062 348.0740676157044Q926.414686644204 348.0740676157044 930.3928199005884 352.9939630307428Q934.3709531569725 357.8976211671838 934.3709531569725 365.0257864714804ZM904.0884285726602 393.5546849672643Q904.0884285726602 396.3637341646294 906.3129357405157 399.62742716272425Q908.5212056297739 402.9073574394165 911.3952039415292 402.9073574394165Q914.2529649746866 402.9073574394165 918.0037763307062 400.9264094505231Q921.7383504081281 398.9292241830323 924.1901794763485 396.70471701517664L924.1901794763485 396.70471701517664Q924.5473996054932 389.82011088984234 924.5473996054932 380.80842126823734L924.5473996054932 380.80842126823734Q914.7238460540138 382.09116627743873 907.2384606205726 386.4265196629677L907.2384606205726 386.4265196629677Q904.0884285726602 387.9365865725339 904.0884285726602 393.5546849672643L904.0884285726602 393.5546849672643ZM1072.777515921948 365.8538876799522L1072.777515921948 365.8538876799522Q1072.777515921948 393.1974648381196 1048.6976317618755 404.77464447812747L1048.6976317618755 404.77464447812747Q1050.5649188005864 407.22647354634796 1054.2020692064234 411.44816598169444Q1057.8229823336628 415.65362113844344 1060.5670824166382 418.2840602712363Q1063.3111824996133 420.91449940402913 1065.8929097966138 422.5544645423753L1065.8929097966138 422.5544645423753Q1069.2702637448908 424.649073481451 1074.8883621396212 426.8735806493067L1074.8883621396212 426.8735806493067Q1078.0383941875336 426.8735806493067 1084.127373661591 425.47717468992283L1084.127373661591 425.47717468992283Q1085.4101186707926 426.6462587489419 1085.4101186707926 428.98442686697996L1085.4101186707926 428.98442686697996Q1084.127373661591 429.3254097175271 1079.67835932588 430.8517139056909L1079.67835932588 430.8517139056909Q1068.572060765199 434.5862879831128 1066.9320956268527 434.5862879831128L1066.9320956268527 434.5862879831128Q1060.5021333022482 434.5862879831128 1043.9076345756168 416.35182411813537L1043.9076345756168 416.35182411813537Q1041.6831274077613 414.0136560000973 1037.4776722510123 408.6391167843293L1037.4776722510123 408.6391167843293Q1032.2167939854266 409.9218617935307 1030.3495069467156 409.9218617935307L1030.3495069467156 409.9218617935307Q1013.2841271407572 409.9218617935307 1001.2360664214223 397.2405472088937Q989.1880057020871 384.5592326242567 989.1880057020871 365.8538876799522L989.1880057020871 365.8538876799522Q989.1880057020871 357.670299266819 991.4774619843329 350.81816769867964Q993.750680987981 343.9822734091378 997.2092213292456 339.54949635202394Q1000.6515243919127 335.10048201631264 1005.2141996778064 331.6581789536455Q1009.7768749637003 328.19963861238085 1013.9823301204492 326.3323515736699Q1018.1877852771981 324.4650645349589 1022.2795794837648 323.2959804759399L1022.2795794837648 323.2959804759399Q1028.3523216792248 321.54235438741136 1031.7459129060994 321.54235438741136L1031.7459129060994 321.54235438741136Q1048.6976317618755 321.54235438741136 1060.7456924812104 334.4509908724132Q1072.777515921948 347.37586463601247 1072.777515921948 365.8538876799522ZM1033.9704200739552 403.84911959807073L1033.9704200739552 403.84911959807073Q1047.1875648523092 403.84911959807073 1054.0234591418512 394.9023790908557Q1060.859353431393 385.95563858364056 1060.859353431393 371.9266298754122L1060.859353431393 371.9266298754122Q1060.859353431393 361.04765321509615 1056.9461692893988 350.996777763252Q1053.0329851474044 340.9459023114078 1045.4339387637806 334.22366897204836Q1037.8348923801568 327.5014356326889 1028.3523216792248 327.5014356326889L1028.3523216792248 327.5014356326889Q1015.1514141794682 327.5014356326889 1008.071960710964 336.67549804026885Q1001.0087445210575 345.8495604478487 1001.0087445210575 359.42392535534754L1001.0087445210575 359.42392535534754Q1001.0087445210575 370.286664737066 1005.0355896132342 380.4024893033002Q1009.0624347054109 390.51831386953427 1016.7913793178143 397.17559809450375Q1024.5040866516204 403.84911959807073 1033.9704200739552 403.84911959807073ZM1137.4343592971395 347.26220368583006L1137.4343592971395 347.26220368583006Q1138.489782405976 347.4895255861949 1139.187985385668 348.6586096452139L1139.187985385668 348.6586096452139Q1138.1325622768315 356.61487615798234 1138.1325622768315 374.8493400229597L1138.1325622768315 374.8493400229597L1138.2462232270138 391.5737369783709Q1138.2462232270138 402.09549350954217 1143.5071014925995 402.09549350954217L1143.5071014925995 402.09549350954217L1147.7287939279458 401.9655952807623Q1148.1834377286757 402.7936964892341 1148.1834377286757 403.84911959807073L1148.1834377286757 403.84911959807073L1148.0697767784932 405.1318646072722Q1142.3380174335805 406.0573894873289 1139.8861883653599 407.35637177512785L1139.8861883653599 407.35637177512785L1136.84981726763 408.7527777345117Q1136.2652752381205 409.1099978636564 1135.0961911791014 409.9218617935307L1135.0961911791014 409.9218617935307Q1132.5307011606985 408.9800996348765 1130.77707507217 405.76511847257416Q1129.0234489836414 402.5501373102718 1128.7798898046792 399.286444312177L1128.7798898046792 399.286444312177Q1118.8426753030174 405.4728474578194 1105.9827506538081 409.9218617935307L1105.9827506538081 409.9218617935307Q1098.4973652203666 409.9218617935307 1094.8277402573349 404.3687125131903Q1091.1418780157053 398.8155632328499 1091.1418780157053 389.2355688603328L1091.1418780157053 389.2355688603328L1091.1418780157053 366.89307351019136Q1091.1418780157053 358.9530442760204 1090.4436750360135 356.7934862225547Q1089.729234777724 354.6176908904915 1086.3518808294468 353.91948791079955L1086.3518808294468 353.91948791079955L1082.487408523245 353.44860683147243Q1082.1301883941003 352.7504038517805 1082.1301883941003 351.93853992190617L1082.1301883941003 351.93853992190617L1082.487408523245 350.5258966839249Q1084.4683565121384 350.18491383337766 1091.4828608662526 349.0158297743586L1091.4828608662526 349.0158297743586L1099.7963475081656 347.26220368583006Q1100.7218723882224 347.4895255861949 1101.4200753679143 348.6586096452139L1101.4200753679143 348.6586096452139Q1100.4945504878576 355.0885719698186 1100.4945504878576 382.44838640658344L1100.4945504878576 382.44838640658344Q1100.4945504878576 401.62461243021505 1110.7727478400666 401.62461243021505L1110.7727478400666 401.62461243021505Q1114.4098982459036 401.62461243021505 1118.0795232089354 400.34186742101366Q1121.765385450565 399.0428851332147 1123.6326724892758 397.8250892384032Q1125.5161968065843 396.59105606499423 1128.4389069541319 394.3665488971386L1128.4389069541319 394.3665488971386Q1128.7798898046792 386.6538415633325 1128.7798898046792 383.2602503364578L1128.7798898046792 383.2602503364578L1128.7798898046792 369.117580678047Q1128.7798898046792 361.9894153737504 1128.1466359393771 359.1803661763852Q1127.4971447954777 356.37131697902004 1126.2631116220687 355.38084298457335Q1125.0453157272573 354.39036899012666 1122.934469509584 353.91948791079955L1122.934469509584 353.91948791079955L1119.0862344819798 353.44860683147243L1118.729014352835 351.93853992190617L1119.0862344819798 350.5258966839249Q1120.2553185409988 350.29857478356007 1123.340401474521 349.94135465441536Q1126.4417216866411 349.60037180386814 1131.5889390020443 348.5449486950315Q1136.7361563174477 347.4895255861949 1137.4343592971395 347.26220368583006ZM1186.0650086966118 401.51095148003265L1186.0650086966118 401.51095148003265Q1195.6612403477263 401.51095148003265 1203.0167275523877 396.3637341646294L1203.0167275523877 396.3637341646294Q1204.656692690734 396.94827619413894 1204.8840145910988 398.8155632328499L1204.8840145910988 398.8155632328499L1192.2676491208515 407.697354625675Q1189.4585999234864 409.9218617935307 1179.7487073221894 409.9218617935307Q1170.05505199949 409.9218617935307 1163.2678695457405 401.2186804652779Q1156.4969243705887 392.49926185842764 1156.4969243705887 379.1684561298912Q1156.4969243705887 365.8538876799522 1163.8524115752502 358.1249430675486Q1171.224136058509 350.4122357337425 1181.3886724605356 348.0740676157044L1181.3886724605356 348.0740676157044Q1190.2704638533608 348.0740676157044 1197.0576463071102 354.033148860982L1197.0576463071102 354.033148860982Q1201.1494405136768 357.5404010380391 1202.7894056520229 363.1584994327694L1202.7894056520229 363.1584994327694Q1203.1303885025702 364.5549053921533 1206.0530986501178 364.68480362093317L1206.0530986501178 364.68480362093317Q1206.767538908407 365.4966675508075 1206.767538908407 366.3734805950718Q1206.767538908407 367.250293639336 1206.5239797294448 368.19205579799024L1206.5239797294448 368.19205579799024Q1185.9513477464293 372.98205298424875 1166.0769187431058 374.8493400229597L1166.0769187431058 374.8493400229597Q1166.0769187431058 389.82011088984234 1174.3741681064214 397.28925904468616L1174.3741681064214 397.28925904468616Q1179.0505043424976 401.51095148003265 1186.0650086966118 401.51095148003265ZM1193.4367331798705 365.8538876799522L1193.4367331798705 365.8538876799522Q1194.0212752093803 365.4966675508075 1194.0212752093803 364.9770746356879Q1194.0212752093803 364.44124444197087 1192.5599201356063 361.6971443589956Q1191.0985650618327 358.9530442760204 1187.477651934593 355.85172406390046Q1183.840501528756 352.7504038517805 1179.8786055509693 352.7504038517805Q1175.9004722945851 352.7504038517805 1174.0331852558743 353.91948791079955L1174.0331852558743 353.91948791079955Q1167.4733247024897 358.3685022465109 1166.5477998224328 370.0593428367012L1166.5477998224328 370.0593428367012Q1172.8641011968552 370.0593428367012 1180.9177913812084 368.7116487131098Q1188.9877188441594 367.36395458951847 1193.4367331798705 365.8538876799522ZM1219.270243428472 355.0885719698186L1219.270243428472 355.0885719698186L1214.707568142578 355.202232920001Q1214.1230261130686 354.6176908904915 1214.1230261130686 353.44860683147243L1214.1230261130686 353.44860683147243L1214.3665852920308 352.05220087208863Q1222.3066145262019 350.996777763252 1227.3401708914228 348.7722705953963L1227.3401708914228 348.7722705953963Q1228.9801360297688 348.0740676157044 1229.321118880316 348.0740676157044L1229.321118880316 348.0740676157044Q1230.6038638895175 348.0740676157044 1232.2438290278637 352.7016920159881Q1233.8837941662098 357.31307913767426 1234.2410142953545 361.87575442356797L1234.2410142953545 361.87575442356797Q1243.009144737997 352.7504038517805 1250.1373100422938 348.0740676157044L1250.1373100422938 348.0740676157044Q1254.81364627837 348.0740676157044 1257.8500173761 350.81816769867964Q1260.8863884738298 353.5785050602523 1260.8863884738298 357.670299266819L1260.8863884738298 357.670299266819Q1260.8863884738298 362.3466355028951 1252.5891391105142 362.3466355028951L1252.5891391105142 362.3466355028951Q1250.8355130219857 356.1439950786552 1246.6300578652367 356.1439950786552L1246.6300578652367 356.1439950786552Q1243.8210086678714 356.1439950786552 1234.9392172750463 365.8538876799522L1234.9392172750463 365.8538876799522Q1234.2410142953545 374.7356790727773 1234.2410142953545 394.1392269967738L1234.2410142953545 394.1392269967738Q1234.2410142953545 403.84911959807073 1235.7510812049209 403.96278054825314L1235.7510812049209 403.96278054825314Q1238.4464694521034 404.30376339880036 1245.2174146272553 404.30376339880036L1245.2174146272553 404.30376339880036Q1245.5746347564 405.1318646072722 1245.5746347564 406.1872877161088Q1245.5746347564 407.22647354634796 1245.2174146272553 407.9409138046374L1245.2174146272553 407.9409138046374L1232.130168077681 407.58369367549267Q1222.550173705164 407.58369367549267 1215.1784492219053 408.5254558341469L1215.1784492219053 408.5254558341469Q1214.5939071923956 407.8110155758575 1214.5939071923956 406.52827056665603L1214.5939071923956 406.52827056665603L1214.707568142578 405.6027456865993Q1220.9102085668178 404.43366162758025 1222.6638346553464 401.9655952807623L1222.6638346553464 401.9655952807623Q1223.946579664548 400.09830824205136 1224.5311216940574 395.95780219969225Q1225.115663723567 391.8010588787357 1225.115663723567 379.6393372092183Q1225.115663723567 367.4776155397009 1225.050714609177 366.19487053049943Q1225.0020027733847 364.912125521298 1224.8883418232022 362.8012793036247Q1224.7584435944223 360.7066703645489 1224.4174607438752 359.65124725571235Q1224.0602406147304 358.5958241468757 1223.3620376350386 357.31307913767426L1223.3620376350386 357.31307913767426Q1222.1929535760194 355.0885719698186 1219.270243428472 355.0885719698186ZM1272.236246213473 349.94135465441536L1272.236246213473 349.94135465441536L1282.287121665317 349.60037180386814Q1282.514443565682 350.18491383337766 1282.514443565682 351.3539978923967L1282.514443565682 351.3539978923967L1282.287121665317 353.2212849311077Q1278.6662085380776 353.2212849311077 1277.139904349914 353.44860683147243L1277.139904349914 353.44860683147243Q1278.1953274587506 360.5930094143665 1282.7580027446443 371.56940974626747L1282.7580027446443 371.56940974626747L1294.09162320569 399.62742716272425L1304.2561596077167 373.5665950137583Q1309.4033769231198 360.3494502354042 1310.1015799028116 353.91948791079955L1310.1015799028116 353.91948791079955Q1305.8961247460627 353.44860683147243 1301.4633476889487 353.44860683147243L1301.4633476889487 353.44860683147243Q1300.9924666096217 352.7504038517805 1300.9924666096217 351.82487897172376Q1300.9924666096217 350.8831168130696 1301.2197885099865 349.94135465441536L1301.2197885099865 349.94135465441536L1312.6833071998121 349.94135465441536Q1318.0578464155801 349.94135465441536 1322.5068607512915 349.24315167472344L1322.5068607512915 349.24315167472344Q1323.432385631348 350.7694558628872 1323.432385631348 352.27952277245345L1323.432385631348 352.27952277245345Q1320.5096754838005 353.5785050602523 1319.2269304745992 354.8612500694538L1319.2269304745992 354.8612500694538Q1316.0768984266865 358.2548412963285 1312.3260870706672 366.89307351019136L1312.3260870706672 366.89307351019136L1295.3743682148913 407.58369367549267Q1293.8643013053252 411.20460680273214 1290.4707100784503 420.15134730994725Q1287.0771188515757 429.0980878171623 1285.7294247279842 432.60533999421943Q1284.381730604393 436.11259217127656 1283.212646545374 439.21391238339646Q1282.0435624863549 442.2989953169189 1280.5334955767887 445.6925865437936L1280.5334955767887 445.6925865437936Q1277.3672262502787 452.9506500768701 1275.4999392115678 452.9506500768701L1275.4999392115678 452.9506500768701Q1274.9153971820583 452.9506500768701 1273.0481101433475 452.23620981858073L1273.0481101433475 452.23620981858073Q1268.0145537781264 450.48258373005217 1261.7144896823017 449.0861777706683L1261.7144896823017 449.0861777706683Q1261.7144896823017 446.74800965263023 1262.7536755125407 445.3516036932464L1262.7536755125407 445.3516036932464Q1266.9753679478872 446.0498066729383 1267.3163507984345 446.0498066729383L1267.3163507984345 446.0498066729383Q1270.7099420253094 446.0498066729383 1276.035769405285 438.1584892745599Q1281.345359506663 430.26717187618135 1284.2680696542106 422.5544645423753L1284.2680696542106 422.5544645423753L1288.4735248109596 411.31826775291455L1269.4271970161078 364.5549053921533Q1266.5044868685604 357.19941818749186 1264.0526578003398 354.6176908904915L1264.0526578003398 354.6176908904915Q1262.526353612176 352.7504038517805 1259.4899825144462 351.82487897172376L1259.4899825144462 351.82487897172376Q1259.4899825144462 349.71403275405055 1260.0745245439555 348.7722705953963L1260.0745245439555 348.7722705953963Q1267.7872318777618 349.94135465441536 1272.236246213473 349.94135465441536Z " fill="#da70fa" transform="matrix(0.6611595861037685,0,0,0.6611595861037683,0,50.1142937072803)"/></g></svg>